# xmcd CD database file
#
# Track frame offsets:
#	150
#	16562
#	33855
#	46882
#	62072
#	74555
#	90786
#	104564
#	115739
#	131586
#
# Disc length: 1931 seconds
#
# Revision: 0
# Processed by: cddbd v1.5.1PL2 Copyright (c) Steve Scherf et al.
# Submitted via: CDex 1.51
#
DISCID=7707890a
DTITLE=Tracy Lawrence - Country Classics
DYEAR=2000
DGENRE=Country
TTITLE0=Sticks And Stones
TTITLE1=Today's Lonely Fool
TTITLE2=Runnin' Behind
TTITLE3=If You Loved Me
TTITLE4=My Second Home
TTITLE5=Better Man, Better Off
TTITLE6=As Any Fool Can See
TTITLE7=If The Good Die Young
TTITLE8=How A Cowgirl Says Goodbye
TTITLE9=Lessons Learned
EXTD=YEAR: 2000
EXTT0=
EXTT1=
EXTT2=
EXTT3=
EXTT4=
EXTT5=
EXTT6=
EXTT7=
EXTT8=
EXTT9=
PLAYORDER=
